<svg width="387" height="311" viewBox="0 0 387 311" fill="none" xmlns="http://www.w3.org/2000/svg">
<path fill-rule="evenodd" clip-rule="evenodd" d="M306.258 283.714C303.638 289.643 301.247 295.062 300.203 298.021L334.15 310.003C334.606 308.712 336.215 304.991 339.187 298.263C339.531 297.484 339.889 296.675 340.259 295.839C342.873 289.926 346.096 282.637 349.582 274.523C357.517 256.053 367.005 232.871 374.228 210.717C381.159 189.456 387.078 166.091 385.52 148.574C384.737 139.776 381.655 127.941 370.916 120.77C360.095 113.543 347.42 114.983 337.023 118.423C318.412 124.58 295.52 137.093 273.464 149.64C268.674 152.365 263.897 155.107 259.154 157.83C241.292 168.085 223.912 178.063 208.139 185.782C198.219 190.637 189.582 194.267 182.44 196.413C176.553 198.181 172.897 198.559 170.936 198.509C170.52 196.117 170.36 190.996 172.299 181.68C180.546 142.052 207.776 108.781 230.232 81.3436C232.7 78.3275 235.111 75.3818 237.433 72.506C243.001 65.6077 248.392 58.6504 252.279 52.2044C255.681 46.5624 260.4 37.4837 259.169 27.4002C257.557 14.2073 247.525 7.40106 238.703 4.44799C230.435 1.68041 219.892 0.883049 207.98 1.01324C180.412 1.31454 153.561 13.176 130.469 26.2565C118.724 32.9097 107.402 40.2074 96.959 47.0732C94.7167 48.5474 92.527 49.9934 90.3851 51.4079C82.3723 56.6995 75.029 61.5488 68.1083 65.7748C59.2623 71.1765 52.2508 74.8336 46.775 76.7259C43.7111 77.7847 41.9591 78.0007 41.1303 78.0305C40.7237 77.376 40.0905 76.0826 39.4128 73.7177C37.6795 67.6692 36.5662 57.446 37.1644 41.1735L1.18873 39.8508C0.536998 57.5783 1.53303 72.2144 4.80564 83.6347C8.12257 95.2096 14.6122 106.049 26.6302 111.208C37.9151 116.053 49.5744 113.847 58.5332 110.752C67.7977 107.55 77.4971 102.223 86.8699 96.4995C94.3913 91.9066 102.438 86.5916 110.523 81.2514C112.594 79.8835 114.668 78.5138 116.736 77.1543C127.065 70.3637 137.559 63.6146 148.212 57.5803C169.917 45.2859 190.191 37.2098 208.373 37.0111C212.745 36.9633 216.261 37.0786 219.058 37.2846C216.653 40.7585 213.45 44.9015 209.421 49.8933C207.264 52.5647 204.909 55.4223 202.408 58.4585C180.477 85.0728 147.238 125.411 137.054 174.345C134.27 187.724 133.505 200.419 137.071 211.079C141.225 223.493 150.615 231.229 162.436 233.653C172.567 235.73 183.373 233.722 192.796 230.891C202.631 227.937 213.26 223.356 223.964 218.117C240.919 209.82 259.69 199.04 277.673 188.713C282.269 186.073 286.814 183.463 291.265 180.931C313.896 168.056 333.691 157.444 348.33 152.601C348.83 152.436 349.284 152.297 349.695 152.181C350.391 161.62 346.904 178.384 340.001 199.558C333.286 220.154 324.305 242.159 316.505 260.313C313.1 268.24 309.956 275.351 307.339 281.269C306.968 282.109 306.607 282.924 306.258 283.714ZM349.11 148.803C349.108 148.806 349.125 148.852 349.166 148.931C349.133 148.84 349.112 148.8 349.11 148.803ZM352.928 151.584C353.008 151.596 353.051 151.596 353.053 151.594C353.054 151.591 353.014 151.585 352.928 151.584ZM41.5886 78.6146C41.5918 78.6069 41.5454 78.5512 41.4398 78.4702C41.5326 78.5818 41.5855 78.6223 41.5886 78.6146Z" fill="#FCFF76" stroke="black"/>
</svg>
